#define DomoP_logo_width 128
#define DomoP_logo_height 66
static unsigned char DomoP_logo_bits[] = {
   0x00, 0x00, 0x00, 0x00, 0x00, 0x00, 0x00, 0x00, 0x00, 0x00, 0x00, 0x00,
   0x00, 0x00, 0x00, 0x00, 0x00, 0x00, 0x00, 0x00, 0x00, 0x00, 0x00, 0x00,
   0x00, 0x00, 0x00, 0x00, 0x00, 0x00, 0x00, 0x00, 0x00, 0x00, 0x00, 0x00,
   0x00, 0x00, 0x00, 0x00, 0x00, 0x00, 0x00, 0x00, 0x00, 0x00, 0x00, 0x00,
   0x00, 0x00, 0x00, 0x00, 0x00, 0x00, 0x00, 0x00, 0x00, 0x00, 0x00, 0x00,
   0x00, 0x00, 0x00, 0x00, 0x00, 0xe0, 0x80, 0x03, 0x0e, 0x00, 0x00, 0x00,
   0x00, 0x00, 0x00, 0x00, 0x00, 0x00, 0x00, 0x00, 0x00, 0xf0, 0xc1, 0x07,
   0x1f, 0x00, 0x00, 0x00, 0x00, 0x00, 0x00, 0x00, 0x00, 0x00, 0x00, 0x00,
   0xf8, 0xff, 0xc3, 0x8f, 0xff, 0x3f, 0x80, 0xff, 0x07, 0x00, 0x00, 0x00,
   0x00, 0x00, 0x00, 0x00, 0xa8, 0xfa, 0xc3, 0x8f, 0x5f, 0x35, 0x00, 0x3e,
   0x1c, 0x00, 0x00, 0x00, 0x00, 0x00, 0x00, 0x00, 0x08, 0xf0, 0xc1, 0x07,
   0x1f, 0x20, 0x00, 0x1e, 0x78, 0x00, 0x00, 0x00, 0x00, 0x00, 0x00, 0x00,
   0x08, 0xe0, 0x80, 0x03, 0x0e, 0x20, 0x00, 0x1e, 0x78, 0x00, 0x00, 0x00,
   0x00, 0x00, 0x00, 0x00, 0x08, 0x00, 0x00, 0x01, 0x00, 0x20, 0x00, 0x1e,
   0xf0, 0x00, 0x00, 0x00, 0x00, 0x00, 0x00, 0x00, 0x08, 0x00, 0x00, 0x01,
   0x00, 0x20, 0x00, 0x0f, 0xf0, 0x00, 0x00, 0x00, 0x00, 0x00, 0x00, 0x00,
   0x08, 0x00, 0x00, 0x03, 0x00, 0x20, 0x00, 0x0f, 0xf0, 0x80, 0x07, 0x3a,
   0x0e, 0x07, 0xe0, 0x01, 0x08, 0x00, 0x00, 0x00, 0x00, 0x20, 0x00, 0x0f,
   0xf8, 0x60, 0x1c, 0x3c, 0x9f, 0x0f, 0x38, 0x07, 0x08, 0x00, 0x00, 0x00,
   0x00, 0x20, 0x00, 0x0f, 0xf0, 0x78, 0x38, 0xf8, 0x7c, 0x0e, 0x1c, 0x0e,
   0x08, 0x00, 0x00, 0x03, 0x00, 0x30, 0x80, 0x07, 0xf8, 0x38, 0x38, 0x7c,
   0x3e, 0x0e, 0x0e, 0x0e, 0xf8, 0x01, 0xc0, 0x07, 0x00, 0x3f, 0x80, 0x07,
   0x78, 0x3c, 0x38, 0x3c, 0x1e, 0x0e, 0x0f, 0x1e, 0xa0, 0xe1, 0xf1, 0x0f,
   0x00, 0x13, 0x80, 0x07, 0x7c, 0x3c, 0x3c, 0x1c, 0x1e, 0x0f, 0x0f, 0x0e,
   0x80, 0xe1, 0xf9, 0x3f, 0x00, 0x03, 0x80, 0x07, 0x7c, 0x1e, 0x3c, 0x1e,
   0x0e, 0x07, 0x07, 0x0f, 0x00, 0xe1, 0xfd, 0x7f, 0x00, 0x03, 0xc0, 0x03,
   0x3c, 0x1e, 0x3c, 0x1e, 0x0f, 0x87, 0x07, 0x0f, 0x80, 0xe1, 0x7f, 0xfc,
   0x00, 0x01, 0xc0, 0x03, 0x1e, 0x1c, 0x1c, 0x0e, 0x8f, 0x27, 0x07, 0x0f,
   0x80, 0xe1, 0x1f, 0xf8, 0x01, 0x03, 0xc0, 0x03, 0x0f, 0x1c, 0x1e, 0x0f,
   0x87, 0x13, 0x87, 0x03, 0x00, 0xe1, 0x0f, 0xe0, 0x07, 0x01, 0xf0, 0xe3,
   0x03, 0x18, 0x0f, 0x8f, 0x87, 0x0f, 0x86, 0x03, 0x00, 0xe1, 0x8f, 0xc3,
   0x0f, 0x02, 0x68, 0x5f, 0x00, 0xf0, 0x01, 0x85, 0x06, 0x07, 0xfc, 0x00,
   0x00, 0xf0, 0xc3, 0x87, 0x1f, 0x00, 0x00, 0x00, 0x00, 0x00, 0x00, 0x00,
   0x00, 0x00, 0x00, 0x00, 0x00, 0xf8, 0xf1, 0x1f, 0x3f, 0x00, 0x00, 0x00,
   0x00, 0x00, 0x00, 0x00, 0x00, 0x00, 0x00, 0x00, 0x00, 0xfc, 0xf0, 0x1f,
   0x7c, 0x00, 0x00, 0x00, 0x00, 0x00, 0x00, 0x00, 0x00, 0x00, 0x00, 0x00,
   0x00, 0x3f, 0xfc, 0x7f, 0xfc, 0x00, 0x00, 0x00, 0x00, 0x00, 0x00, 0x00,
   0x00, 0x00, 0x00, 0x00, 0x80, 0x1f, 0xfe, 0xff, 0xf0, 0x03, 0xe0, 0xff,
   0x01, 0x00, 0x00, 0x00, 0x00, 0x00, 0xf0, 0x03, 0xc0, 0x0f, 0xff, 0xff,
   0xe1, 0x07, 0x80, 0x8f, 0x07, 0x00, 0x00, 0x00, 0x00, 0x00, 0xc0, 0x03,
   0xe0, 0xc7, 0xff, 0xff, 0xc7, 0x0f, 0x80, 0x07, 0x0f, 0x00, 0x00, 0x00,
   0x00, 0x00, 0xc0, 0x03, 0xe0, 0xc1, 0xff, 0xff, 0x8f, 0x0f, 0x80, 0x07,
   0x0f, 0x00, 0x00, 0x00, 0x00, 0x00, 0xc0, 0x01, 0x00, 0xf0, 0xff, 0xff,
   0x0f, 0x00, 0x80, 0x07, 0x0f, 0x00, 0x00, 0x00, 0x00, 0x00, 0xe0, 0x01,
   0x00, 0xf0, 0xff, 0xff, 0x1f, 0x00, 0xc0, 0x03, 0x0f, 0x00, 0x00, 0x00,
   0x00, 0x00, 0xe0, 0x01, 0x00, 0xf0, 0xff, 0xff, 0x1f, 0x00, 0xc0, 0x83,
   0x0f, 0x9f, 0xe2, 0xe7, 0x01, 0x7c, 0xe0, 0x00, 0x00, 0xf0, 0xff, 0xff,
   0x1f, 0x00, 0xc0, 0x83, 0x87, 0xe3, 0x81, 0xf3, 0x03, 0xc6, 0xe0, 0x00,
   0x00, 0xf0, 0x3f, 0xf8, 0x1f, 0x00, 0xc0, 0xd3, 0xc3, 0xe1, 0x81, 0x8f,
   0x83, 0xc7, 0xf1, 0x00, 0x00, 0xf0, 0x1f, 0xf0, 0x1f, 0x00, 0xe0, 0x77,
   0xe0, 0xe1, 0xc1, 0xc7, 0x83, 0xc3, 0xf1, 0x00, 0x00, 0xf0, 0x1f, 0xf0,
   0x1f, 0x00, 0xe0, 0x01, 0xf0, 0xe0, 0xc1, 0xc3, 0xc3, 0xe1, 0x70, 0x00,
   0x00, 0xf0, 0x1f, 0xf0, 0x1f, 0x00, 0xe0, 0x01, 0xf0, 0xe0, 0xc0, 0xc3,
   0xe1, 0x71, 0x78, 0x00, 0x00, 0xf0, 0x0f, 0xf0, 0x1f, 0x00, 0xe0, 0x01,
   0xf0, 0xf0, 0xc0, 0xe1, 0xe1, 0x1f, 0x78, 0x00, 0x00, 0xf0, 0x1f, 0xf0,
   0x1f, 0x00, 0xf0, 0x00, 0x70, 0xf0, 0xe0, 0xe1, 0xe0, 0x01, 0x38, 0x00,
   0x00, 0xf0, 0x1f, 0xf0, 0x1f, 0x00, 0xf0, 0x00, 0xf0, 0x70, 0xe4, 0xf1,
   0xe4, 0x01, 0x38, 0x01, 0x00, 0xf0, 0x1f, 0xf0, 0x1f, 0x00, 0xf0, 0x00,
   0xf0, 0xf8, 0xe2, 0xf0, 0xc4, 0x41, 0x3c, 0x01, 0x00, 0xf0, 0x0f, 0xf0,
   0x1f, 0x00, 0xfc, 0x01, 0xe0, 0xf5, 0xf1, 0xe0, 0xc3, 0x23, 0xf8, 0x00,
   0x00, 0xf0, 0x1f, 0xf0, 0x1f, 0x00, 0xa8, 0x02, 0xc0, 0xe3, 0x50, 0xe0,
   0x00, 0x1f, 0x38, 0x00, 0x00, 0xf0, 0x1f, 0xf0, 0x1f, 0x00, 0x00, 0x00,
   0x00, 0x00, 0x00, 0x00, 0x00, 0x00, 0x00, 0x00, 0x00, 0x40, 0x05, 0x40,
   0x05, 0x00, 0x00, 0x00, 0x00, 0x00, 0x00, 0x00, 0x00, 0x00, 0x00, 0x00,
   0x10, 0x00, 0x00, 0x00, 0x00, 0x00, 0x00, 0x00, 0x00, 0x00, 0x00, 0x00,
   0x00, 0x00, 0x00, 0x00, 0x10, 0x00, 0x00, 0x00, 0x00, 0x00, 0x00, 0x00,
   0x00, 0x00, 0x00, 0x00, 0x00, 0x00, 0x00, 0x00, 0x08, 0x00, 0x00, 0x00,
   0x00, 0x00, 0x00, 0x00, 0x00, 0x00, 0x00, 0x00, 0x00, 0x00, 0x00, 0x00,
   0x10, 0x00, 0x00, 0x00, 0x00, 0x00, 0x00, 0x00, 0x00, 0x00, 0x00, 0x00,
   0x00, 0x00, 0x00, 0x00, 0x18, 0x00, 0x00, 0x00, 0x00, 0x00, 0x00, 0x00,
   0x00, 0x00, 0x00, 0x00, 0x00, 0x00, 0x00, 0x00, 0x10, 0x00, 0x00, 0x00,
   0x00, 0x00, 0x00, 0x00, 0x00, 0x00, 0x00, 0x00, 0x00, 0x00, 0x00, 0x00,
   0x10, 0x00, 0x00, 0x00, 0x00, 0x00, 0x00, 0x00, 0x00, 0x00, 0x00, 0x00,
   0x00, 0x00, 0x00, 0x00, 0xb0, 0xaa, 0xaa, 0xaa, 0xaa, 0xaa, 0xaa, 0x2a,
   0x25, 0x49, 0x92, 0x24, 0x11, 0x11, 0x21, 0x00, 0xb0, 0xaa, 0xaa, 0xaa,
   0xaa, 0xaa, 0xaa, 0xda, 0xde, 0xf7, 0xff, 0xff, 0xff, 0xff, 0xff, 0x07,
   0x10, 0x00, 0x00, 0x00, 0x00, 0x00, 0x00, 0x00, 0x00, 0x00, 0x00, 0x00,
   0x00, 0x00, 0x00, 0x00, 0x10, 0x00, 0x00, 0x00, 0x00, 0x00, 0x00, 0x00,
   0x00, 0x00, 0x00, 0x00, 0x00, 0x00, 0x00, 0x00, 0x10, 0x00, 0x00, 0x00,
   0x00, 0x00, 0x00, 0x00, 0x00, 0x00, 0x00, 0x00, 0x00, 0x00, 0x00, 0x00,
   0x10, 0x00, 0x00, 0x00, 0x00, 0x00, 0x00, 0x00, 0x00, 0x00, 0x00, 0x00,
   0x00, 0x00, 0x00, 0x01, 0xf0, 0xff, 0xff, 0xff, 0xff, 0xff, 0xff, 0xff,
   0xff, 0xff, 0xff, 0xff, 0xff, 0xff, 0xff, 0x0f, 0x00, 0x00, 0x00, 0x00,
   0x00, 0x00, 0x00, 0x00, 0x00, 0x00, 0x00, 0x00, 0x00, 0x00, 0x00, 0x00,
   0x00, 0x00, 0x00, 0x00, 0x00, 0x00, 0x00, 0x00, 0x00, 0x00, 0x00, 0x00,
   0x00, 0x00, 0x00, 0x00, 0x00, 0x00, 0x00, 0x00, 0x00, 0x00, 0x00, 0x00,
   0x00, 0x00, 0x00, 0x00, 0x00, 0x00, 0x00, 0x00, 0x00, 0x00, 0x00, 0x00,
   0x00, 0x00, 0x00, 0x00, 0x00, 0x00, 0x00, 0x00, 0x00, 0x00, 0x00, 0x00 };
